<svg xmlns="http://www.w3.org/2000/svg" xmlns:xlink="http://www.w3.org/1999/xlink" xmlns:lucid="lucid" width="1519.46" height="1440.09"><g transform="translate(0 0)" lucid:page-tab-id="0_0"><path d="M301.23 256.05h41.12" stroke="#333" fill="none"/><path d="M301.24 256.55h-.55l.03-.48-.02-.52h.54z" stroke="#333" stroke-width=".05" fill="#333"/><path d="M357.1 256.05l-14.25 4.63v-9.27z" stroke="#333" fill="#333"/><path d="M521.23 256.05h61.12" stroke="#333" fill="none"/><path d="M521.24 256.55h-.5v-1h.5z" stroke="#333" stroke-width=".05" fill="#333"/><path d="M597.1 256.05l-14.25 4.63v-9.27z" stroke="#333" fill="#333"/><path d="M299.73 256.05c0 16.56-13.43 30-30 30s-30-13.44-30-30c0-16.57 13.43-30 30-30s30 13.43 30 30z" stroke="#333" stroke-width="2" fill="#225798"/><use xlink:href="#a" transform="matrix(1,0,0,1,239.7302640827379,288.0457952756358) translate(11.259259259259256 22.22222222222222)"/><path d="M1279.73 1296.05c0 16.56-13.43 30-30 30s-30-13.44-30-30c0-16.57 13.43-30 30-30s30 13.43 30 30z" stroke="#333" stroke-width="6" fill="#d7e9ff"/><path d="M1270.98 1296.05c0 11.73-9.5 21.25-21.25 21.25-11.74 0-21.25-9.52-21.25-21.25 0-11.74 9.5-21.25 21.25-21.25 11.74 0 21.25 9.5 21.25 21.25z" fill="#333"/><use xlink:href="#b" transform="matrix(1,0,0,1,1219.730264082738,1328.0457952756358) translate(14.197530864197528 22.22222222222222)"/><path d="M359.73 226.8a5 5 0 0 1 5-5h150a5 5 0 0 1 5 5v58.5a5 5 0 0 1-5 5h-150a5 5 0 0 1-5-5z" stroke="#333" stroke-width="2" fill="#3278ca"/><use xlink:href="#c" transform="matrix(1,0,0,1,359.7302640827379,221.79579527563578) translate(9.456790123456784 27.15972222222222)"/><use xlink:href="#d" transform="matrix(1,0,0,1,359.7302640827379,221.79579527563578) translate(71.53086419753086 27.15972222222222)"/><use xlink:href="#e" transform="matrix(1,0,0,1,359.7302640827379,221.79579527563578) translate(55.82716049382716 48.49305555555556)"/><path d="M599.73 201.05a5 5 0 0 1 5-5h150a5 5 0 0 1 5 5v110a5 5 0 0 1-5 5h-150a5 5 0 0 1-5-5z" stroke="#333" stroke-width="2" fill="#00a67e"/><use xlink:href="#f" transform="matrix(1,0,0,1,599.7302640827379,196.04579527563578) translate(30.71604938271605 51.72222222222222)"/><use xlink:href="#g" transform="matrix(1,0,0,1,599.7302640827379,196.04579527563578) translate(86.91358024691358 51.72222222222222)"/><use xlink:href="#h" transform="matrix(1,0,0,1,599.7302640827379,196.04579527563578) translate(47.45679012345679 73.05555555555556)"/><path d="M599.73 429.55a5 5 0 0 1 5-5h150a5 5 0 0 1 5 5v110a5 5 0 0 1-5 5h-150a5 5 0 0 1-5-5z" stroke="#333" stroke-width="2" fill="#75b2ff"/><use xlink:href="#i" transform="matrix(1,0,0,1,599.7302640827379,424.54579527563584) translate(4.074074074074062 62.97222222222222)"/><use xlink:href="#j" transform="matrix(1,0,0,1,599.7302640827379,424.54579527563584) translate(66.19753086419752 62.97222222222222)"/><path d="M282.88 88a8 8 0 0 1 8-8h929.8a8 8 0 0 1 8 8v25.16a8 8 0 0 1-8 8h-929.8a8 8 0 0 1-8-8z" stroke="#000" stroke-opacity="0" stroke-width="2" fill="#fff" fill-opacity="0"/><use xlink:href="#k" transform="matrix(1,0,0,1,286.8768168680807,84) translate(419.50135802469134 25.782777777777778)"/><path d="M587 119.8h348.7M587.04 119.8H586M935.67 119.8h1.03" stroke="#a9afb8" stroke-width="2" fill="none"/><path d="M282.88 129.16a8 8 0 0 1 8-8h930.85a8 8 0 0 1 8 8V132a8 8 0 0 1-8 8H290.88a8 8 0 0 1-8-8z" stroke="#000" stroke-opacity="0" stroke-width="2" fill="#fff" fill-opacity="0"/><path d="M599.73 658.05a5 5 0 0 1 5-5h150a5 5 0 0 1 5 5v110a5 5 0 0 1-5 5h-150a5 5 0 0 1-5-5z" stroke="#333" stroke-width="2" fill="#00a67e"/><use xlink:href="#f" transform="matrix(1,0,0,1,599.7302640827379,653.0457952756358) translate(34.44444444444444 51.72222222222222)"/><use xlink:href="#l" transform="matrix(1,0,0,1,599.7302640827379,653.0457952756358) translate(90.64197530864197 51.72222222222222)"/><use xlink:href="#m" transform="matrix(1,0,0,1,599.7302640827379,653.0457952756358) translate(36.09876543209876 73.05555555555556)"/><path d="M599.73 961.55l80-80 80 80-80 80z" stroke="#333" fill="#fff"/><path d="M999.73 1266.8a5 5 0 0 1 5-5h150a5 5 0 0 1 5 5v58.5a5 5 0 0 1-5 5h-150a5 5 0 0 1-5-5z" stroke="#333" stroke-width="2" fill="#3278ca"/><use xlink:href="#n" transform="matrix(1,0,0,1,999.7302640827379,1261.7957952756358) translate(32.641975308641975 37.94097222222222)"/><use xlink:href="#o" transform="matrix(1,0,0,1,999.7302640827379,1261.7957952756358) translate(75.06172839506173 37.94097222222222)"/><path d="M1139.73 565.05c0-6.22-26.86-11.25-60-11.25s-60 5.03-60 11.25v69.75c0 3.96 26.86 9 60 9s60-5.04 60-11.25z" stroke="#333" fill="#d7e9ff"/><path d="M1139.73 565.05c0 6.2-26.86 11.25-60 11.25s-60-5.04-60-11.25m120 8.55c0 3.96-26.86 9-60 9s-60-5.04-60-11.25m120 8.55c0 3.96-26.86 9-60 9s-60-5.04-60-11.25" stroke="#333" fill="#d7e9ff"/><use xlink:href="#p" transform="matrix(1,0,0,1,1019.7302640827379,593.7957952756358) translate(14.549999999999997 23.6)"/><use xlink:href="#q" transform="matrix(1,0,0,1,1019.7302640827379,593.7957952756358) translate(80.5 23.6)"/><path d="M709.73 1241.05a5 5 0 0 1 5-5h150a5 5 0 0 1 5 5v110a5 5 0 0 1-5 5h-150a5 5 0 0 1-5-5z" stroke="#333" stroke-width="2" fill="#75b2ff"/><use xlink:href="#r" transform="matrix(1,0,0,1,709.7302640827379,1236.0457952756358) translate(19.82716049382715 51.72222222222222)"/><use xlink:href="#s" transform="matrix(1,0,0,1,709.7302640827379,1236.0457952756358) translate(66.14814814814814 51.72222222222222)"/><use xlink:href="#t" transform="matrix(1,0,0,1,709.7302640827379,1236.0457952756358) translate(102.69135802469135 51.72222222222222)"/><use xlink:href="#u" transform="matrix(1,0,0,1,709.7302640827379,1236.0457952756358) translate(30.39506172839505 73.05555555555556)"/><path d="M719.73 1082.02a8 8 0 0 1 8-8h124a8 8 0 0 1 8 8v40.88a8 8 0 0 1-8 8h-124a8 8 0 0 1-8-8z" fill="#fff"/><path d="M721.4 1077.15l.67-.8.8-.67m3.82-1.58l1.03-.08h.98m3.95 0h1.97m3.94 0h1.96m3.94 0h1.97m3.94 0h1.96m3.94 0h1.97m3.93 0h1.97m3.94 0h1.97m3.93 0h1.97m3.94 0h1.96m3.93 0h1.96m3.94 0h1.97m3.93 0h1.97m3.94 0h1.98m3.93 0h1.98m3.94 0h1.97m3.92 0h1.97m3.93 0h1.97m3.93 0H835m3.94 0h1.96m3.94 0h1.97m3.95 0h.98l1.04.08m3.82 1.58l.8.68.67.8m1.58 3.8l.08 1.06v.97m0 3.88v1.95m0 3.9v1.94m0 3.9v1.94m0 3.9v1.95m0 3.9v1.94m0 3.88v1.95m0 3.9v.97l-.08 1.04m-1.58 3.82l-.68.8-.8.67m-3.83 1.58l-1.04.1h-.98m-3.94 0h-1.96m-3.94 0h-1.96m-3.94 0h-1.97m-3.93 0h-1.97m-3.94 0h-1.98m-3.93 0h-1.98m-3.94 0h-1.97m-3.92 0h-1.97m-3.93 0h-1.97m-3.93 0h-1.97m-3.94 0h-1.97m-3.94 0h-1.97m-3.95 0h-1.97m-3.93 0h-1.97m-3.94 0h-1.97m-3.93 0h-1.97m-3.94 0h-1.97m-3.93 0h-1.97m-3.94 0h-1.96m-3.94 0h-1.97m-3.94 0h-.97l-1.04-.1m-3.83-1.57l-.8-.68-.68-.8m-1.6-3.8l-.07-1.05v-.98m0-3.9v-1.94m0-3.9v-1.94m0-3.9v-1.94m0-3.9v-1.94m0-3.9v-1.94m0-3.9v-1.94m0-3.9v-.96l.08-1.05" stroke="#008a0e" fill="none"/><use xlink:href="#v" transform="matrix(1,0,0,1,719.7302640827379,1074.0146704521974) translate(36.004999999999995 32.2125)"/><path d="M499.73 1082.02a8 8 0 0 1 8-8h124a8 8 0 0 1 8 8v40.88a8 8 0 0 1-8 8h-124a8 8 0 0 1-8-8z" fill="#fff"/><path d="M501.4 1077.15l.67-.8.8-.67m3.82-1.58l1.03-.08h.98m3.95 0h1.97m3.94 0h1.96m3.94 0h1.97m3.94 0h1.96m3.94 0h1.97m3.93 0h1.97m3.94 0h1.97m3.93 0h1.97m3.94 0h1.96m3.93 0h1.96m3.94 0h1.97m3.93 0h1.97m3.94 0h1.98m3.93 0h1.98m3.94 0h1.97m3.92 0h1.97m3.93 0h1.97m3.93 0H615m3.94 0h1.96m3.94 0h1.97m3.95 0h.98l1.04.08m3.82 1.58l.8.68.67.8m1.58 3.8l.08 1.06v.97m0 3.88v1.95m0 3.9v1.94m0 3.9v1.94m0 3.9v1.95m0 3.9v1.94m0 3.88v1.95m0 3.9v.97l-.08 1.04m-1.58 3.82l-.68.8-.8.67m-3.83 1.58l-1.04.1h-.98m-3.94 0h-1.96m-3.94 0h-1.96m-3.94 0h-1.97m-3.93 0h-1.97m-3.94 0h-1.98m-3.93 0h-1.98m-3.94 0h-1.97m-3.92 0h-1.97m-3.93 0h-1.97m-3.93 0h-1.97m-3.94 0h-1.97m-3.94 0h-1.97m-3.95 0h-1.97m-3.93 0h-1.97m-3.94 0h-1.97m-3.93 0h-1.97m-3.94 0h-1.97m-3.93 0h-1.97m-3.94 0h-1.96m-3.94 0h-1.97m-3.94 0h-.97l-1.04-.1m-3.83-1.57l-.8-.68-.68-.8m-1.6-3.8l-.07-1.05v-.98m0-3.9v-1.94m0-3.9v-1.94m0-3.9v-1.94m0-3.9v-1.94m0-3.9v-1.94m0-3.9v-1.94m0-3.9v-.96l.08-1.05" stroke="#e81313" fill="none"/><use xlink:href="#w" transform="matrix(1,0,0,1,499.7302640827379,1074.0146704521974) translate(42.605 32.2125)"/><path d="M239.73 686.8a8 8 0 0 1 8-8h144a8 8 0 0 1 8 8v52.5a8 8 0 0 1-8 8h-144a8 8 0 0 1-8-8z" stroke="#e81313" fill="#fff"/><use xlink:href="#x" transform="matrix(1,0,0,1,239.7302640827379,678.7957952756358) translate(13.630000000000004 38.11875)"/><use xlink:href="#y" transform="matrix(1,0,0,1,239.7302640827379,678.7957952756358) translate(58.480000000000004 38.11875)"/><use xlink:href="#z" transform="matrix(1,0,0,1,239.7302640827379,678.7957952756358) translate(106.38000000000001 38.11875)"/><path d="M498.73 1102.45h-2m-3.96 0h-3.98m-4 0h-3.96m-3.98 0h-3.98m-3.97 0h-3.97m-3.97 0h-3.98m-3.98 0h-3.97m-3.98 0h-3.97m-3.98 0h-3.98m-3.97 0h-3.98m-3.98 0h-3.98m-3.98 0h-3.97m-3.98 0h-4m-3.96 0h-3.98m-3.98 0h-3.97m-3.97 0h-3.97m-3.98 0h-3.98m-3.97 0h-3.98m-3.97 0h-3.98m-3.98 0h-3.97m-3.98 0h-3.98m-3.98 0h-2l-1.87-.14-.46-.1m-4.32-1.8l-.4-.24-1.44-1.22-1.22-1.43-.24-.4m-1.8-4.3l-.1-.47-.15-1.88v-1.98m0-3.98v-4m0-3.97v-3.98m0-3.98v-3.98m0-4v-3.97m0-3.98v-3.97m0-3.98v-3.98m0-3.98v-3.98m0-3.98v-3.98m0-3.98v-3.98m0-3.98v-3.97m0-4v-3.97m0-3.98v-3.98m0-3.98v-4m0-3.97v-3.98m0-3.97v-3.98m0-3.98v-3.98m0-3.98v-3.98m0-3.98v-3.98m0-3.98v-3.98m0-3.97v-4m0-3.97v-3.98m0-3.98v-3.98m0-4v-3.97m0-3.98v-3.98m0-3.97v-3.98m0-3.98v-3.98m0-3.98v-3.98m0-3.98v-3.98m0-3.98v-3.98m0-3.97v-3.97m0-3.98v-3.98m0-3.98v-4m0-3.97v-3.98m0-3.98v-3.97m0-3.98v-3.98m0-3.98v-3.98m0-3.98v-3.98m0-3.98v-3.98m0-3.97v-4m0-3.97v-3.98m0-3.98v-2" stroke="#e81313" fill="none"/><path d="M499.23 1102.95h-.5v-1h.5z" stroke="#e81313" stroke-width=".05" fill="#e81313"/><path d="M319.73 749.4l4.64 14.28h-9.27z" stroke="#e81313" fill="#e81313"/><path d="M319.73 677.8v-1.97m0-3.94v-3.94m0-3.94v-3.93m0-3.95v-3.93m0-3.94v-3.94m0-3.93v-3.93m0-3.93v-3.94m0-3.93v-3.94m0-3.93v-3.94m0-3.94V605m0-3.95v-3.93m0-3.94v-3.93m0-3.94v-3.92m0-3.94v-3.93m0-3.93v-3.94m0-3.93v-3.94m0-3.93v-3.94m0-3.94v-3.94m0-3.93v-3.95m0-3.93v-1.97l.15-1.88.1-.46m1.8-4.3l.24-.4 1.23-1.44 1.43-1.22.4-.25m4.3-1.8l.47-.1 1.88-.15h2.02m4.04 0h4.04m4.04 0h4.04m4.04 0H358m4.05 0h4.04m4.03 0h4.04m4.05 0h4.04m4.04 0h4.04m4.04 0h4.05m4.04 0h4.04m4.05 0h4.05m4.04 0h4.04m4.04 0h4.04m4.05 0h4.05m4.04 0h4.03m4.05 0h4.04m4.04 0h4.04m4.04 0h4.05m4.03 0h4.04m4.04 0h4.06m4.04 0h4.04m4.04 0h4.04m4.05 0h4.04m4.05 0h4.04m4.03 0h4.05m4.04 0h4.04m4.04 0h4.05m4.04 0h4.03m4.04 0h4.04m4.06 0h4.04m4.04 0h4.04m4.05 0h2.02" stroke="#e81313" fill="none"/><path d="M320.23 678.3h-1v-.52h1z" stroke="#e81313" stroke-width=".05" fill="#e81313"/><path d="M597.1 516.25l-14.25 4.63v-9.27z" stroke="#e81313" fill="#e81313"/><path d="M639.86 1002.88h-2.08m-4.15 0h-4.15m-4.15 0h-4.15m-4.16 0h-4.15m-4.15 0h-4.15m-4.16 0h-4.14m-4.15 0h-4.14m-4.15 0h-2.07l-1.88.15-.46.1m-4.32 1.8l-.4.25-1.43 1.22-1.23 1.43-.24.4m-1.8 4.32l-.1.46-.15 1.88v2.12m0 4.22v4.23m0 4.22v4.22m0 4.22v4.22m0 4.23v4.22m0 4.22v2.1" stroke="#e81313" fill="none"/><path d="M640.86 1003.38h-1v-1z" stroke="#e81313" stroke-width=".05" fill="#e81313"/><path d="M569.73 1071.9l-4.63-14.27h9.27z" stroke="#e81313" fill="#e81313"/><path d="M719.6 1002.88h4.84m4.85 0h9.68m4.84 0h9.7m4.83 0h9.7m4.84 0h4.83l1.88.15 1.84.44 1.74.72.53.32m4.4 4.38l.32.54.72 1.74.44 1.83.15 1.88v4.7m0 4.7v9.38m0 4.7v9.38m0 4.7v4.7" stroke="#008a0e" fill="none"/><path d="M719.6 1003.38h-1l1-1z" stroke="#008a0e" stroke-width=".05" fill="#008a0e"/><path d="M789.73 1071.9l-4.63-14.27h9.27z" stroke="#008a0e" fill="#008a0e"/><path d="M619.73 939.55a8 8 0 0 1 8-8h104a8 8 0 0 1 8 8v44a8 8 0 0 1-8 8h-104a8 8 0 0 1-8-8z" stroke="#000" stroke-opacity="0" fill="#fff" fill-opacity="0"/><use xlink:href="#A" transform="matrix(1,0,0,1,624.7302640827379,936.5457952756358) translate(37.325 17.525)"/><use xlink:href="#B" transform="matrix(1,0,0,1,624.7302640827379,936.5457952756358) translate(15.524999999999999 39.125)"/><path d="M789.73 1234.55v-39.5 23.6" stroke="#333" fill="none"/><path d="M790.23 1235.05h-1v-.52h1z" stroke="#333" stroke-width=".05" fill="#333"/><path d="M789.73 1233.43l-4.63-14.27h9.27z" stroke="#333" fill="#333"/><path d="M679.73 317.55v89.6" stroke="#333" fill="none"/><path d="M680.23 317.56h-1v-.5h1z" stroke="#333" stroke-width=".05" fill="#333"/><path d="M679.73 421.93l-4.63-14.27h9.27z" stroke="#333" fill="#333"/><path d="M699.73 348.3a8 8 0 0 1 8-8h124a8 8 0 0 1 8 8v44a8 8 0 0 1-8 8h-124a8 8 0 0 1-8-8z" stroke="#000" stroke-opacity="0" fill="#fff" fill-opacity="0"/><use xlink:href="#C" transform="matrix(1,0,0,1,704.7302640827379,345.2957952756358) translate(0 17.525)"/><use xlink:href="#D" transform="matrix(1,0,0,1,704.7302640827379,345.2957952756358) translate(0 39.125)"/><use xlink:href="#E" transform="matrix(1,0,0,1,704.7302640827379,345.2957952756358) translate(65.95 39.125)"/><path d="M679.73 546.05v89.6" stroke="#333" fill="none"/><path d="M680.23 546.06h-1v-.5h1z" stroke="#333" stroke-width=".05" fill="#333"/><path d="M679.73 650.43l-4.63-14.27h9.27z" stroke="#333" fill="#333"/><path d="M699.73 576.8a8 8 0 0 1 8-8h84a8 8 0 0 1 8 8v44a8 8 0 0 1-8 8h-84a8 8 0 0 1-8-8z" stroke="#000" stroke-opacity="0" fill="#fff" fill-opacity="0"/><use xlink:href="#F" transform="matrix(1,0,0,1,704.7302640827379,573.7957952756358) translate(0 30.025)"/><path d="M679.73 774.55v89.9" stroke="#333" fill="none"/><path d="M680.23 774.56h-1v-.5h1z" stroke="#333" stroke-width=".05" fill="#333"/><path d="M679.73 879.22l-4.63-14.26h9.27z" stroke="#333" fill="#333"/><path d="M699.73 810.3a8 8 0 0 1 8-8h44a8 8 0 0 1 8 8v44a8 8 0 0 1-8 8h-44a8 8 0 0 1-8-8z" stroke="#000" stroke-opacity="0" fill="#fff" fill-opacity="0"/><use xlink:href="#G" transform="matrix(1,0,0,1,704.7302640827379,807.301549751339) translate(0 30.025)"/><path d="M789.73 1131.9v86.76" stroke="#333" fill="none"/><path d="M790.23 1131.9h-1v-.5h1z" stroke="#333" stroke-width=".05" fill="#333"/><path d="M789.73 1233.43l-4.63-14.27h9.27z" stroke="#333" fill="#333"/><path d="M799.73 1161.47a8 8 0 0 1 8-8h204a8 8 0 0 1 8 8v44a8 8 0 0 1-8 8h-204a8 8 0 0 1-8-8z" stroke="#000" stroke-opacity="0" fill="#fff" fill-opacity="0"/><use xlink:href="#H" transform="matrix(1,0,0,1,804.7302640827379,1158.4709982989816) translate(11.399999999999991 17.525)"/><use xlink:href="#I" transform="matrix(1,0,0,1,804.7302640827379,1158.4709982989816) translate(75.25 17.525)"/><use xlink:href="#J" transform="matrix(1,0,0,1,804.7302640827379,1158.4709982989816) translate(118.2 17.525)"/><use xlink:href="#K" transform="matrix(1,0,0,1,804.7302640827379,1158.4709982989816) translate(133.7 17.525)"/><use xlink:href="#L" transform="matrix(1,0,0,1,804.7302640827379,1158.4709982989816) translate(60.349999999999994 39.125)"/><use xlink:href="#M" transform="matrix(1,0,0,1,804.7302640827379,1158.4709982989816) translate(100.69999999999999 39.125)"/><path d="M959.73 750.3a8 8 0 0 1 8-8h84a8 8 0 0 1 8 8v44a8 8 0 0 1-8 8h-84a8 8 0 0 1-8-8z" stroke="#000" stroke-opacity="0" fill="#fff" fill-opacity="0"/><use xlink:href="#G" transform="matrix(1,0,0,1,964.7302640827378,747.3015497513392) translate(27 30.025)"/><path d="M718.54 919.14h322.8a12 12 0 0 0 12-12V659.47" stroke="#333" fill="none"/><path d="M718.55 919.64l-1-1h1z" stroke="#333" stroke-width=".05" fill="#333"/><path d="M1053.35 644.7l4.63 14.27h-9.27z" stroke="#333" fill="#333"/><path d="M1079.73 644.8v304.75a12 12 0 0 1-12 12h-290.9" stroke="#333" fill="none"/><path d="M1080.23 644.8h-1v-.52l.5.02.5-.02z" stroke="#333" stroke-width=".05" fill="#333"/><path d="M762.05 961.55l14.27-4.64v9.28z" stroke="#333" fill="#333"/><path d="M1079.73 755.3a8 8 0 0 1 8-8h84a8 8 0 0 1 8 8v44a8 8 0 0 1-8 8h-84a8 8 0 0 1-8-8z" stroke="#000" stroke-opacity="0" fill="#fff" fill-opacity="0"/><use xlink:href="#N" transform="matrix(1,0,0,1,1084.730264082738,752.2957952756358) translate(15.574999999999996 17.525)"/><use xlink:href="#O" transform="matrix(1,0,0,1,1084.730264082738,752.2957952756358) translate(26.025 39.125)"/><path d="M871.23 1296.05h111.12" stroke="#333" fill="none"/><path d="M871.24 1296.55h-.5v-1h.5z" stroke="#333" stroke-width=".05" fill="#333"/><path d="M997.1 1296.05l-14.25 4.63v-9.27z" stroke="#333" fill="#333"/><path d="M1161.23 1296.05h39.12" stroke="#333" fill="none"/><path d="M1161.24 1296.55h-.5v-1h.5z" stroke="#333" stroke-width=".05" fill="#333"/><path d="M1215.1 1296.05l-14.25 4.63v-9.27z" stroke="#333" fill="#333"/><path d="M1018.73 598.8h-177a12 12 0 0 1-12-12v-58.55a12 12 0 0 0-12-12H777.1" stroke="#333" fill="none"/><path d="M1019.23 599.3h-.5v-1h.5z" stroke="#333" stroke-width=".05" fill="#333"/><path d="M762.35 516.25l14.26-4.64v9.28z" stroke="#333" fill="#333"/><path d="M839.73 544.05a8 8 0 0 1 8-8h134a8 8 0 0 1 8 8v44a8 8 0 0 1-8 8h-134a8 8 0 0 1-8-8z" stroke="#000" stroke-opacity="0" fill="#fff" fill-opacity="0"/><g><use xlink:href="#P" transform="matrix(1,0,0,1,844.7302640827379,541.0457952756358) translate(0.14999999999999147 17.525)"/><use xlink:href="#Q" transform="matrix(1,0,0,1,844.7302640827379,541.0457952756358) translate(48.05 17.525)"/><use xlink:href="#R" transform="matrix(1,0,0,1,844.7302640827379,541.0457952756358) translate(127.85000000000001 17.525)"/><use xlink:href="#S" transform="matrix(1,0,0,1,844.7302640827379,541.0457952756358) translate(32.525 39.125)"/></g><path d="M919.73 408.3a8 8 0 0 1 8-8h304a8 8 0 0 1 8 8v24a8 8 0 0 1-8 8h-304a8 8 0 0 1-8-8z" stroke="#333" fill="#bfbfbf"/><g><use xlink:href="#T" transform="matrix(1,0,0,1,919.7302640827379,400.2957952756358) translate(82.605 24.4)"/><use xlink:href="#U" transform="matrix(1,0,0,1,919.7302640827379,400.2957952756358) translate(121.505 24.4)"/><use xlink:href="#V" transform="matrix(1,0,0,1,919.7302640827379,400.2957952756358) translate(160.505 24.4)"/></g><path d="M918.73 420.3a9 9 0 0 0-9 9v9.15a12 12 0 0 1-12 12H777.1" stroke="#333" fill="none"/><path d="M919.23 420.8h-.5v-1h.5z" stroke="#333" stroke-width=".05" fill="#333"/><path d="M762.35 450.45l14.26-4.64v9.28z" stroke="#333" fill="#333"/><path d="M439.73 291.8v146.5a12 12 0 0 0 12 12h130.62" stroke="#333" fill="none"/><path d="M440.23 291.8h-1v-.5h1z" stroke="#333" stroke-width=".05" fill="#333"/><path d="M597.1 450.3l-14.25 4.63v-9.27z" stroke="#333" fill="#333"/><path d="M929.73 204.05a8 8 0 0 1 8-8h284a8 8 0 0 1 8 8v104a8 8 0 0 1-8 8h-284a8 8 0 0 1-8-8z" fill="#fff" fill-opacity="0"/><path d="M959.73 196.05h-22a8 8 0 0 0-8 8v104a8 8 0 0 0 8 8h22" stroke="#333" fill="none"/><g><use xlink:href="#W" transform="matrix(1,0,0,1,944.7302640827379,201.04579527563578) translate(12.625 39.5)"/><use xlink:href="#X" transform="matrix(1,0,0,1,944.7302640827379,201.04579527563578) translate(60.575 39.5)"/><use xlink:href="#Y" transform="matrix(1,0,0,1,944.7302640827379,201.04579527563578) translate(104.525 39.5)"/><use xlink:href="#Z" transform="matrix(1,0,0,1,944.7302640827379,201.04579527563578) translate(180.425 39.5)"/><use xlink:href="#aa" transform="matrix(1,0,0,1,944.7302640827379,201.04579527563578) translate(214.425 39.5)"/><use xlink:href="#ab" transform="matrix(1,0,0,1,944.7302640827379,201.04579527563578) translate(252.375 39.5)"/><use xlink:href="#ac" transform="matrix(1,0,0,1,944.7302640827379,201.04579527563578) translate(24.57499999999999 61.1)"/><use xlink:href="#ad" transform="matrix(1,0,0,1,944.7302640827379,201.04579527563578) translate(69.57499999999999 61.1)"/><use xlink:href="#ae" transform="matrix(1,0,0,1,944.7302640827379,201.04579527563578) translate(135.52499999999998 61.1)"/><use xlink:href="#af" transform="matrix(1,0,0,1,944.7302640827379,201.04579527563578) translate(189.475 61.1)"/><use xlink:href="#R" transform="matrix(1,0,0,1,944.7302640827379,201.04579527563578) translate(248.425 61.1)"/><use xlink:href="#ag" transform="matrix(1,0,0,1,944.7302640827379,201.04579527563578) translate(22.67500000000001 82.70000000000002)"/><use xlink:href="#ah" transform="matrix(1,0,0,1,944.7302640827379,201.04579527563578) translate(120.52500000000002 82.70000000000002)"/><use xlink:href="#ai" transform="matrix(1,0,0,1,944.7302640827379,201.04579527563578) translate(157.425 82.70000000000002)"/><use xlink:href="#q" transform="matrix(1,0,0,1,944.7302640827379,201.04579527563578) translate(237.375 82.70000000000002)"/></g><defs><path fill="#333" d="M185-189c-5-48-123-54-124 2 14 75 158 14 163 119 3 78-121 87-175 55-17-10-28-26-33-46l33-7c5 56 141 63 141-1 0-78-155-14-162-118-5-82 145-84 179-34 5 7 8 16 11 25" id="aj"/><path fill="#333" d="M59-47c-2 24 18 29 38 22v24C64 9 27 4 27-40v-127H5v-23h24l9-43h21v43h35v23H59v120" id="ak"/><path fill="#333" d="M141-36C126-15 110 5 73 4 37 3 15-17 15-53c-1-64 63-63 125-63 3-35-9-54-41-54-24 1-41 7-42 31l-33-3c5-37 33-52 76-52 45 0 72 20 72 64v82c-1 20 7 32 28 27v20c-31 9-61-2-59-35zM48-53c0 20 12 33 32 33 41-3 63-29 60-74-43 2-92-5-92 41" id="al"/><path fill="#333" d="M114-163C36-179 61-72 57 0H25l-1-190h30c1 12-1 29 2 39 6-27 23-49 58-41v29" id="am"/><g id="a"><use transform="matrix(0.04938271604938272,0,0,0.04938271604938272,0,0)" xlink:href="#aj"/><use transform="matrix(0.04938271604938272,0,0,0.04938271604938272,11.851851851851853,0)" xlink:href="#ak"/><use transform="matrix(0.04938271604938272,0,0,0.04938271604938272,16.790123456790127,0)" xlink:href="#al"/><use transform="matrix(0.04938271604938272,0,0,0.04938271604938272,26.666666666666668,0)" xlink:href="#am"/><use transform="matrix(0.04938271604938272,0,0,0.04938271604938272,32.543209876543216,0)" xlink:href="#ak"/></g><path fill="#333" d="M30 0v-248h187v28H63v79h144v27H63v87h162V0H30" id="an"/><path fill="#333" d="M117-194c89-4 53 116 60 194h-32v-121c0-31-8-49-39-48C34-167 62-67 57 0H25l-1-190h30c1 10-1 24 2 32 11-22 29-35 61-36" id="ao"/><path fill="#333" d="M85-194c31 0 48 13 60 33l-1-100h32l1 261h-30c-2-10 0-23-3-31C134-8 116 4 85 4 32 4 16-35 15-94c0-66 23-100 70-100zm9 24c-40 0-46 34-46 75 0 40 6 74 45 74 42 0 51-32 51-76 0-42-9-74-50-73" id="ap"/><g id="b"><use transform="matrix(0.04938271604938272,0,0,0.04938271604938272,0,0)" xlink:href="#an"/><use transform="matrix(0.04938271604938272,0,0,0.04938271604938272,11.851851851851853,0)" xlink:href="#ao"/><use transform="matrix(0.04938271604938272,0,0,0.04938271604938272,21.7283950617284,0)" xlink:href="#ap"/></g><path fill="#fff" d="M190 0L58-211 59 0H30v-248h39L202-35l-2-213h31V0h-41" id="aq"/><path fill="#fff" d="M141-36C126-15 110 5 73 4 37 3 15-17 15-53c-1-64 63-63 125-63 3-35-9-54-41-54-24 1-41 7-42 31l-33-3c5-37 33-52 76-52 45 0 72 20 72 64v82c-1 20 7 32 28 27v20c-31 9-61-2-59-35zM48-53c0 20 12 33 32 33 41-3 63-29 60-74-43 2-92-5-92 41" id="ar"/><path fill="#fff" d="M59-47c-2 24 18 29 38 22v24C64 9 27 4 27-40v-127H5v-23h24l9-43h21v43h35v23H59v120" id="as"/><path fill="#fff" d="M84 4C-5 8 30-112 23-190h32v120c0 31 7 50 39 49 72-2 45-101 50-169h31l1 190h-30c-1-10 1-25-2-33-11 22-28 36-60 37" id="at"/><path fill="#fff" d="M114-163C36-179 61-72 57 0H25l-1-190h30c1 12-1 29 2 39 6-27 23-49 58-41v29" id="au"/><path fill="#fff" d="M24 0v-261h32V0H24" id="av"/><g id="c"><use transform="matrix(0.04938271604938272,0,0,0.04938271604938272,0,0)" xlink:href="#aq"/><use transform="matrix(0.04938271604938272,0,0,0.04938271604938272,12.790123456790125,0)" xlink:href="#ar"/><use transform="matrix(0.04938271604938272,0,0,0.04938271604938272,22.66666666666667,0)" xlink:href="#as"/><use transform="matrix(0.04938271604938272,0,0,0.04938271604938272,27.604938271604947,0)" xlink:href="#at"/><use transform="matrix(0.04938271604938272,0,0,0.04938271604938272,37.48148148148149,0)" xlink:href="#au"/><use transform="matrix(0.04938271604938272,0,0,0.04938271604938272,43.35802469135803,0)" xlink:href="#ar"/><use transform="matrix(0.04938271604938272,0,0,0.04938271604938272,53.23456790123457,0)" xlink:href="#av"/></g><path fill="#fff" d="M30 0v-248h33v221h125V0H30" id="aw"/><path fill="#fff" d="M117-194c89-4 53 116 60 194h-32v-121c0-31-8-49-39-48C34-167 62-67 57 0H25l-1-190h30c1 10-1 24 2 32 11-22 29-35 61-36" id="ax"/><path fill="#fff" d="M177-190C167-65 218 103 67 71c-23-6-38-20-44-43l32-5c15 47 100 32 89-28v-30C133-14 115 1 83 1 29 1 15-40 15-95c0-56 16-97 71-98 29-1 48 16 59 35 1-10 0-23 2-32h30zM94-22c36 0 50-32 50-73 0-42-14-75-50-75-39 0-46 34-46 75s6 73 46 73" id="ay"/><path fill="#fff" d="M100-194c63 0 86 42 84 106H49c0 40 14 67 53 68 26 1 43-12 49-29l28 8c-11 28-37 45-77 45C44 4 14-33 15-96c1-61 26-98 85-98zm52 81c6-60-76-77-97-28-3 7-6 17-6 28h103" id="az"/><g id="d"><use transform="matrix(0.04938271604938272,0,0,0.04938271604938272,0,0)" xlink:href="#aw"/><use transform="matrix(0.04938271604938272,0,0,0.04938271604938272,9.876543209876544,0)" xlink:href="#ar"/><use transform="matrix(0.04938271604938272,0,0,0.04938271604938272,19.75308641975309,0)" xlink:href="#ax"/><use transform="matrix(0.04938271604938272,0,0,0.04938271604938272,29.629629629629633,0)" xlink:href="#ay"/><use transform="matrix(0.04938271604938272,0,0,0.04938271604938272,39.50617283950618,0)" xlink:href="#at"/><use transform="matrix(0.04938271604938272,0,0,0.04938271604938272,49.38271604938272,0)" xlink:href="#ar"/><use transform="matrix(0.04938271604938272,0,0,0.04938271604938272,59.25925925925927,0)" xlink:href="#ay"/><use transform="matrix(0.04938271604938272,0,0,0.04938271604938272,69.13580246913581,0)" xlink:href="#az"/></g><path fill="#fff" d="M140-251c81 0 123 46 123 126C263-53 228-8 163 1c7 30 30 48 69 40v23c-55 16-95-15-103-61C56-3 17-48 17-125c0-80 42-126 123-126zm0 227c63 0 89-41 89-101s-29-99-89-99c-61 0-89 39-89 99S79-25 140-24" id="aA"/><path fill="#fff" d="M179-190L93 31C79 59 56 82 12 73V49c39 6 53-20 64-50L1-190h34L92-34l54-156h33" id="aB"/><g id="e"><use transform="matrix(0.04938271604938272,0,0,0.04938271604938272,0,0)" xlink:href="#aA"/><use transform="matrix(0.04938271604938272,0,0,0.04938271604938272,13.827160493827162,0)" xlink:href="#at"/><use transform="matrix(0.04938271604938272,0,0,0.04938271604938272,23.703703703703706,0)" xlink:href="#az"/><use transform="matrix(0.04938271604938272,0,0,0.04938271604938272,33.580246913580254,0)" xlink:href="#au"/><use transform="matrix(0.04938271604938272,0,0,0.04938271604938272,39.4567901234568,0)" xlink:href="#aB"/></g><path fill="#fff" d="M143 4C61 4 22-44 18-125c-5-107 100-154 193-111 17 8 29 25 37 43l-32 9c-13-25-37-40-76-40-61 0-88 39-88 99 0 61 29 100 91 101 35 0 62-11 79-27v-45h-74v-28h105v86C228-13 192 4 143 4" id="aC"/><path fill="#fff" d="M30-248c87 1 191-15 191 75 0 78-77 80-158 76V0H30v-248zm33 125c57 0 124 11 124-50 0-59-68-47-124-48v98" id="aD"/><path fill="#fff" d="M127-220V0H93v-220H8v-28h204v28h-85" id="aE"/><path fill="#fff" d="M16-82v-28h88v28H16" id="aF"/><path fill="#fff" d="M155-56V0h-30v-56H8v-25l114-167h33v167h35v25h-35zm-30-156c-27 46-58 90-88 131h88v-131" id="aG"/><g id="f"><use transform="matrix(0.04938271604938272,0,0,0.04938271604938272,0,0)" xlink:href="#aC"/><use transform="matrix(0.04938271604938272,0,0,0.04938271604938272,13.827160493827162,0)" xlink:href="#aD"/><use transform="matrix(0.04938271604938272,0,0,0.04938271604938272,25.679012345679016,0)" xlink:href="#aE"/><use transform="matrix(0.04938271604938272,0,0,0.04938271604938272,35.50617283950617,0)" xlink:href="#aF"/><use transform="matrix(0.04938271604938272,0,0,0.04938271604938272,41.382716049382715,0)" xlink:href="#aG"/></g><path fill="#fff" d="M115-194c53 0 69 39 70 98 0 66-23 100-70 100C84 3 66-7 56-30L54 0H23l1-261h32v101c10-23 28-34 59-34zm-8 174c40 0 45-34 45-75 0-40-5-75-45-74-42 0-51 32-51 76 0 43 10 73 51 73" id="aH"/><g id="g"><use transform="matrix(0.04938271604938272,0,0,0.04938271604938272,0,0)" xlink:href="#aE"/><use transform="matrix(0.04938271604938272,0,0,0.04938271604938272,8.839506172839506,0)" xlink:href="#ar"/><use transform="matrix(0.04938271604938272,0,0,0.04938271604938272,18.71604938271605,0)" xlink:href="#aH"/><use transform="matrix(0.04938271604938272,0,0,0.04938271604938272,28.592592592592595,0)" xlink:href="#av"/><use transform="matrix(0.04938271604938272,0,0,0.04938271604938272,32.49382716049383,0)" xlink:href="#az"/></g><path fill="#fff" d="M185-189c-5-48-123-54-124 2 14 75 158 14 163 119 3 78-121 87-175 55-17-10-28-26-33-46l33-7c5 56 141 63 141-1 0-78-155-14-162-118-5-82 145-84 179-34 5 7 8 16 11 25" id="aI"/><path fill="#fff" d="M96-169c-40 0-48 33-48 73s9 75 48 75c24 0 41-14 43-38l32 2c-6 37-31 61-74 61-59 0-76-41-82-99-10-93 101-131 147-64 4 7 5 14 7 22l-32 3c-4-21-16-35-41-35" id="aJ"/><path fill="#fff" d="M100-194c62-1 85 37 85 99 1 63-27 99-86 99S16-35 15-95c0-66 28-99 85-99zM99-20c44 1 53-31 53-75 0-43-8-75-51-75s-53 32-53 75 10 74 51 75" id="aK"/><g id="h"><use transform="matrix(0.04938271604938272,0,0,0.04938271604938272,0,0)" xlink:href="#aI"/><use transform="matrix(0.04938271604938272,0,0,0.04938271604938272,11.851851851851853,0)" xlink:href="#az"/><use transform="matrix(0.04938271604938272,0,0,0.04938271604938272,21.7283950617284,0)" xlink:href="#av"/><use transform="matrix(0.04938271604938272,0,0,0.04938271604938272,25.629629629629633,0)" xlink:href="#az"/><use transform="matrix(0.04938271604938272,0,0,0.04938271604938272,35.50617283950618,0)" xlink:href="#aJ"/><use transform="matrix(0.04938271604938272,0,0,0.04938271604938272,44.39506172839506,0)" xlink:href="#as"/><use transform="matrix(0.04938271604938272,0,0,0.04938271604938272,49.333333333333336,0)" xlink:href="#aK"/><use transform="matrix(0.04938271604938272,0,0,0.04938271604938272,59.20987654320988,0)" xlink:href="#au"/></g><path fill="#fff" d="M210-169c-67 3-38 105-44 169h-31v-121c0-29-5-50-35-48C34-165 62-65 56 0H25l-1-190h30c1 10-1 24 2 32 10-44 99-50 107 0 11-21 27-35 58-36 85-2 47 119 55 194h-31v-121c0-29-5-49-35-48" id="aL"/><path fill="#fff" d="M115-194c55 1 70 41 70 98S169 2 115 4C84 4 66-9 55-30l1 105H24l-1-265h31l2 30c10-21 28-34 59-34zm-8 174c40 0 45-34 45-75s-6-73-45-74c-42 0-51 32-51 76 0 43 10 73 51 73" id="aM"/><g id="i"><use transform="matrix(0.04938271604938272,0,0,0.04938271604938272,0,0)" xlink:href="#aD"/><use transform="matrix(0.04938271604938272,0,0,0.04938271604938272,11.851851851851853,0)" xlink:href="#au"/><use transform="matrix(0.04938271604938272,0,0,0.04938271604938272,17.728395061728396,0)" xlink:href="#aK"/><use transform="matrix(0.04938271604938272,0,0,0.04938271604938272,27.60493827160494,0)" xlink:href="#aL"/><use transform="matrix(0.04938271604938272,0,0,0.04938271604938272,42.370370370370374,0)" xlink:href="#aM"/><use transform="matrix(0.04938271604938272,0,0,0.04938271604938272,52.24691358024692,0)" xlink:href="#as"/></g><path fill="#fff" d="M30 0v-248h187v28H63v79h144v27H63v87h162V0H30" id="aN"/><path fill="#fff" d="M24-231v-30h32v30H24zM24 0v-190h32V0H24" id="aO"/><path fill="#fff" d="M106-169C34-169 62-67 57 0H25v-261h32l-1 103c12-21 28-36 61-36 89 0 53 116 60 194h-32v-121c2-32-8-49-39-48" id="aP"/><g id="j"><use transform="matrix(0.04938271604938272,0,0,0.04938271604938272,0,0)" xlink:href="#aN"/><use transform="matrix(0.04938271604938272,0,0,0.04938271604938272,11.851851851851853,0)" xlink:href="#ax"/><use transform="matrix(0.04938271604938272,0,0,0.04938271604938272,21.7283950617284,0)" xlink:href="#au"/><use transform="matrix(0.04938271604938272,0,0,0.04938271604938272,27.604938271604947,0)" xlink:href="#aO"/><use transform="matrix(0.04938271604938272,0,0,0.04938271604938272,31.506172839506174,0)" xlink:href="#aJ"/><use transform="matrix(0.04938271604938272,0,0,0.04938271604938272,40.39506172839506,0)" xlink:href="#aP"/><use transform="matrix(0.04938271604938272,0,0,0.04938271604938272,50.27160493827161,0)" xlink:href="#aL"/><use transform="matrix(0.04938271604938272,0,0,0.04938271604938272,65.03703703703704,0)" xlink:href="#az"/><use transform="matrix(0.04938271604938272,0,0,0.04938271604938272,74.91358024691358,0)" xlink:href="#ax"/><use transform="matrix(0.04938271604938272,0,0,0.04938271604938272,84.79012345679013,0)" xlink:href="#as"/></g><path fill="#a9afb8" d="M136-208V0H84v-208H4v-40h212v40h-80" id="aQ"/><path fill="#a9afb8" d="M185-48c-13 30-37 53-82 52C43 2 14-33 14-96s30-98 90-98c62 0 83 45 84 108H66c0 31 8 55 39 56 18 0 30-7 34-22zm-45-69c5-46-57-63-70-21-2 6-4 13-4 21h74" id="aR"/><path fill="#a9afb8" d="M144 0l-44-69L55 0H2l70-98-66-92h53l41 62 40-62h54l-67 91 71 99h-54" id="aS"/><path fill="#a9afb8" d="M115-3C79 11 28 4 28-45v-112H4v-33h27l15-45h31v45h36v33H77v99c-1 23 16 31 38 25v30" id="aT"/><path fill="#a9afb8" d="M169-182c-1-43-94-46-97-3 18 66 151 10 154 114 3 95-165 93-204 36-6-8-10-19-12-30l50-8c3 46 112 56 116 5-17-69-150-10-154-114-4-87 153-88 188-35 5 8 8 18 10 28" id="aU"/><path fill="#a9afb8" d="M140-251c80 0 125 45 125 126 0 70-33 111-92 124 6 28 34 38 68 31l-1 36C177 83 129 55 120 2 51-6 15-50 15-125c0-81 44-126 125-126zm-1 214c52 0 73-35 73-88 0-50-21-86-72-86-52 0-73 35-73 86s22 88 72 88" id="aV"/><path fill="#a9afb8" d="M24 0v-248h52v208h133V0H24" id="aW"/><g id="k"><use transform="matrix(0.0728395061728395,0,0,0.0728395061728395,0,0)" xlink:href="#aQ"/><use transform="matrix(0.0728395061728395,0,0,0.0728395061728395,13.985185185185184,0)" xlink:href="#aR"/><use transform="matrix(0.0728395061728395,0,0,0.0728395061728395,28.553086419753086,0)" xlink:href="#aS"/><use transform="matrix(0.0728395061728395,0,0,0.0728395061728395,43.120987654320984,0)" xlink:href="#aT"/><use transform="matrix(0.0728395061728395,0,0,0.0728395061728395,51.78888888888889,0)" xlink:href="#aU"/><use transform="matrix(0.0728395061728395,0,0,0.0728395061728395,69.27037037037036,0)" xlink:href="#aV"/><use transform="matrix(0.0728395061728395,0,0,0.0728395061728395,89.66543209876541,0)" xlink:href="#aW"/></g><g id="l"><use transform="matrix(0.04938271604938272,0,0,0.04938271604938272,0,0)" xlink:href="#aI"/><use transform="matrix(0.04938271604938272,0,0,0.04938271604938272,11.851851851851853,0)" xlink:href="#aA"/><use transform="matrix(0.04938271604938272,0,0,0.04938271604938272,25.679012345679016,0)" xlink:href="#aw"/></g><g id="m"><use transform="matrix(0.04938271604938272,0,0,0.04938271604938272,0,0)" xlink:href="#aC"/><use transform="matrix(0.04938271604938272,0,0,0.04938271604938272,13.827160493827162,0)" xlink:href="#az"/><use transform="matrix(0.04938271604938272,0,0,0.04938271604938272,23.703703703703706,0)" xlink:href="#ax"/><use transform="matrix(0.04938271604938272,0,0,0.04938271604938272,33.580246913580254,0)" xlink:href="#az"/><use transform="matrix(0.04938271604938272,0,0,0.04938271604938272,43.4567901234568,0)" xlink:href="#au"/><use transform="matrix(0.04938271604938272,0,0,0.04938271604938272,49.33333333333334,0)" xlink:href="#ar"/><use transform="matrix(0.04938271604938272,0,0,0.04938271604938272,59.209876543209894,0)" xlink:href="#as"/><use transform="matrix(0.04938271604938272,0,0,0.04938271604938272,64.14814814814815,0)" xlink:href="#aO"/><use transform="matrix(0.04938271604938272,0,0,0.04938271604938272,68.0493827160494,0)" xlink:href="#aK"/><use transform="matrix(0.04938271604938272,0,0,0.04938271604938272,77.92592592592594,0)" xlink:href="#ax"/></g><path fill="#fff" d="M30-248c118-7 216 8 213 122C240-48 200 0 122 0H30v-248zM63-27c89 8 146-16 146-99s-60-101-146-95v194" id="aX"/><g id="n"><use transform="matrix(0.04938271604938272,0,0,0.04938271604938272,0,0)" xlink:href="#aX"/><use transform="matrix(0.04938271604938272,0,0,0.04938271604938272,12.790123456790125,0)" xlink:href="#ar"/><use transform="matrix(0.04938271604938272,0,0,0.04938271604938272,22.66666666666667,0)" xlink:href="#as"/><use transform="matrix(0.04938271604938272,0,0,0.04938271604938272,27.604938271604947,0)" xlink:href="#ar"/></g><path fill="#fff" d="M33 0v-248h34V0H33" id="aY"/><path fill="#fff" d="M135-143c-3-34-86-38-87 0 15 53 115 12 119 90S17 21 10-45l28-5c4 36 97 45 98 0-10-56-113-15-118-90-4-57 82-63 122-42 12 7 21 19 24 35" id="aZ"/><g id="o"><use transform="matrix(0.04938271604938272,0,0,0.04938271604938272,0,0)" xlink:href="#aY"/><use transform="matrix(0.04938271604938272,0,0,0.04938271604938272,4.938271604938272,0)" xlink:href="#ax"/><use transform="matrix(0.04938271604938272,0,0,0.04938271604938272,14.814814814814817,0)" xlink:href="#aZ"/><use transform="matrix(0.04938271604938272,0,0,0.04938271604938272,23.703703703703706,0)" xlink:href="#aO"/><use transform="matrix(0.04938271604938272,0,0,0.04938271604938272,27.60493827160494,0)" xlink:href="#ay"/><use transform="matrix(0.04938271604938272,0,0,0.04938271604938272,37.48148148148148,0)" xlink:href="#aP"/><use transform="matrix(0.04938271604938272,0,0,0.04938271604938272,47.358024691358025,0)" xlink:href="#as"/></g><path fill="#333" d="M212-179c-10-28-35-45-73-45-59 0-87 40-87 99 0 60 29 101 89 101 43 0 62-24 78-52l27 14C228-24 195 4 139 4 59 4 22-46 18-125c-6-104 99-153 187-111 19 9 31 26 39 46" id="ba"/><path fill="#333" d="M100-194c63 0 86 42 84 106H49c0 40 14 67 53 68 26 1 43-12 49-29l28 8c-11 28-37 45-77 45C44 4 14-33 15-96c1-61 26-98 85-98zm52 81c6-60-76-77-97-28-3 7-6 17-6 28h103" id="bb"/><path fill="#333" d="M135-143c-3-34-86-38-87 0 15 53 115 12 119 90S17 21 10-45l28-5c4 36 97 45 98 0-10-56-113-15-118-90-4-57 82-63 122-42 12 7 21 19 24 35" id="bc"/><path fill="#333" d="M84 4C-5 8 30-112 23-190h32v120c0 31 7 50 39 49 72-2 45-101 50-169h31l1 190h-30c-1-10 1-25-2-33-11 22-28 36-60 37" id="bd"/><g id="p"><use transform="matrix(0.05,0,0,0.05,0,0)" xlink:href="#ba"/><use transform="matrix(0.05,0,0,0.05,12.950000000000001,0)" xlink:href="#bb"/><use transform="matrix(0.05,0,0,0.05,22.950000000000003,0)" xlink:href="#ao"/><use transform="matrix(0.05,0,0,0.05,32.95,0)" xlink:href="#bc"/><use transform="matrix(0.05,0,0,0.05,41.95,0)" xlink:href="#bd"/><use transform="matrix(0.05,0,0,0.05,51.95,0)" xlink:href="#bc"/></g><path fill="#333" d="M30-248c118-7 216 8 213 122C240-48 200 0 122 0H30v-248zM63-27c89 8 146-16 146-99s-60-101-146-95v194" id="be"/><path fill="#333" d="M160-131c35 5 61 23 61 61C221 17 115-2 30 0v-248c76 3 177-17 177 60 0 33-19 50-47 57zm-97-11c50-1 110 9 110-42 0-47-63-36-110-37v79zm0 115c55-2 124 14 124-45 0-56-70-42-124-44v89" id="bf"/><g id="q"><use transform="matrix(0.05,0,0,0.05,0,0)" xlink:href="#be"/><use transform="matrix(0.05,0,0,0.05,12.950000000000001,0)" xlink:href="#bf"/></g><path fill="#fff" d="M63-220v92h138v28H63V0H30v-248h175v28H63" id="bg"/><g id="r"><use transform="matrix(0.04938271604938272,0,0,0.04938271604938272,0,0)" xlink:href="#bg"/><use transform="matrix(0.04938271604938272,0,0,0.04938271604938272,10.814814814814815,0)" xlink:href="#au"/><use transform="matrix(0.04938271604938272,0,0,0.04938271604938272,16.691358024691358,0)" xlink:href="#aK"/><use transform="matrix(0.04938271604938272,0,0,0.04938271604938272,26.567901234567902,0)" xlink:href="#ax"/><use transform="matrix(0.04938271604938272,0,0,0.04938271604938272,36.44444444444444,0)" xlink:href="#as"/></g><path fill="#fff" d="M85-194c31 0 48 13 60 33l-1-100h32l1 261h-30c-2-10 0-23-3-31C134-8 116 4 85 4 32 4 16-35 15-94c0-66 23-100 70-100zm9 24c-40 0-46 34-46 75 0 40 6 74 45 74 42 0 51-32 51-76 0-42-9-74-50-73" id="bh"/><g id="s"><use transform="matrix(0.04938271604938272,0,0,0.04938271604938272,0,0)" xlink:href="#aN"/><use transform="matrix(0.04938271604938272,0,0,0.04938271604938272,11.851851851851853,0)" xlink:href="#ax"/><use transform="matrix(0.04938271604938272,0,0,0.04938271604938272,21.7283950617284,0)" xlink:href="#bh"/></g><g id="t"><use transform="matrix(0.04938271604938272,0,0,0.04938271604938272,0,0)" xlink:href="#aX"/><use transform="matrix(0.04938271604938272,0,0,0.04938271604938272,12.790123456790125,0)" xlink:href="#ar"/><use transform="matrix(0.04938271604938272,0,0,0.04938271604938272,22.66666666666667,0)" xlink:href="#as"/><use transform="matrix(0.04938271604938272,0,0,0.04938271604938272,27.604938271604947,0)" xlink:href="#ar"/></g><path fill="#fff" d="M137 0h-34L2-248h35l83 218 83-218h36" id="bi"/><path fill="#fff" d="M9 0v-24l116-142H16v-24h144v24L44-24h123V0H9" id="bj"/><g id="u"><use transform="matrix(0.04938271604938272,0,0,0.04938271604938272,0,0)" xlink:href="#bi"/><use transform="matrix(0.04938271604938272,0,0,0.04938271604938272,11.506172839506174,0)" xlink:href="#aO"/><use transform="matrix(0.04938271604938272,0,0,0.04938271604938272,15.407407407407408,0)" xlink:href="#aZ"/><use transform="matrix(0.04938271604938272,0,0,0.04938271604938272,24.296296296296298,0)" xlink:href="#at"/><use transform="matrix(0.04938271604938272,0,0,0.04938271604938272,34.17283950617284,0)" xlink:href="#ar"/><use transform="matrix(0.04938271604938272,0,0,0.04938271604938272,44.04938271604939,0)" xlink:href="#av"/><use transform="matrix(0.04938271604938272,0,0,0.04938271604938272,47.95061728395062,0)" xlink:href="#aO"/><use transform="matrix(0.04938271604938272,0,0,0.04938271604938272,51.851851851851855,0)" xlink:href="#bj"/><use transform="matrix(0.04938271604938272,0,0,0.04938271604938272,60.74074074074075,0)" xlink:href="#ar"/><use transform="matrix(0.04938271604938272,0,0,0.04938271604938272,70.61728395061729,0)" xlink:href="#as"/><use transform="matrix(0.04938271604938272,0,0,0.04938271604938272,75.55555555555557,0)" xlink:href="#aO"/><use transform="matrix(0.04938271604938272,0,0,0.04938271604938272,79.45679012345681,0)" xlink:href="#aK"/><use transform="matrix(0.04938271604938272,0,0,0.04938271604938272,89.33333333333336,0)" xlink:href="#ax"/></g><path fill="#008a0e" d="M185-189c-5-48-123-54-124 2 14 75 158 14 163 119 3 78-121 87-175 55-17-10-28-26-33-46l33-7c5 56 141 63 141-1 0-78-155-14-162-118-5-82 145-84 179-34 5 7 8 16 11 25" id="bk"/><path fill="#008a0e" d="M84 4C-5 8 30-112 23-190h32v120c0 31 7 50 39 49 72-2 45-101 50-169h31l1 190h-30c-1-10 1-25-2-33-11 22-28 36-60 37" id="bl"/><path fill="#008a0e" d="M96-169c-40 0-48 33-48 73s9 75 48 75c24 0 41-14 43-38l32 2c-6 37-31 61-74 61-59 0-76-41-82-99-10-93 101-131 147-64 4 7 5 14 7 22l-32 3c-4-21-16-35-41-35" id="bm"/><path fill="#008a0e" d="M100-194c63 0 86 42 84 106H49c0 40 14 67 53 68 26 1 43-12 49-29l28 8c-11 28-37 45-77 45C44 4 14-33 15-96c1-61 26-98 85-98zm52 81c6-60-76-77-97-28-3 7-6 17-6 28h103" id="bn"/><path fill="#008a0e" d="M135-143c-3-34-86-38-87 0 15 53 115 12 119 90S17 21 10-45l28-5c4 36 97 45 98 0-10-56-113-15-118-90-4-57 82-63 122-42 12 7 21 19 24 35" id="bo"/><g id="v"><use transform="matrix(0.05,0,0,0.05,0,0)" xlink:href="#bk"/><use transform="matrix(0.05,0,0,0.05,12,0)" xlink:href="#bl"/><use transform="matrix(0.05,0,0,0.05,22,0)" xlink:href="#bm"/><use transform="matrix(0.05,0,0,0.05,31,0)" xlink:href="#bm"/><use transform="matrix(0.05,0,0,0.05,40,0)" xlink:href="#bn"/><use transform="matrix(0.05,0,0,0.05,50,0)" xlink:href="#bo"/><use transform="matrix(0.05,0,0,0.05,59,0)" xlink:href="#bo"/></g><path fill="#e81313" d="M63-220v92h138v28H63V0H30v-248h175v28H63" id="bp"/><path fill="#e81313" d="M141-36C126-15 110 5 73 4 37 3 15-17 15-53c-1-64 63-63 125-63 3-35-9-54-41-54-24 1-41 7-42 31l-33-3c5-37 33-52 76-52 45 0 72 20 72 64v82c-1 20 7 32 28 27v20c-31 9-61-2-59-35zM48-53c0 20 12 33 32 33 41-3 63-29 60-74-43 2-92-5-92 41" id="bq"/><path fill="#e81313" d="M24-231v-30h32v30H24zM24 0v-190h32V0H24" id="br"/><path fill="#e81313" d="M24 0v-261h32V0H24" id="bs"/><path fill="#e81313" d="M84 4C-5 8 30-112 23-190h32v120c0 31 7 50 39 49 72-2 45-101 50-169h31l1 190h-30c-1-10 1-25-2-33-11 22-28 36-60 37" id="bt"/><path fill="#e81313" d="M114-163C36-179 61-72 57 0H25l-1-190h30c1 12-1 29 2 39 6-27 23-49 58-41v29" id="bu"/><path fill="#e81313" d="M100-194c63 0 86 42 84 106H49c0 40 14 67 53 68 26 1 43-12 49-29l28 8c-11 28-37 45-77 45C44 4 14-33 15-96c1-61 26-98 85-98zm52 81c6-60-76-77-97-28-3 7-6 17-6 28h103" id="bv"/><g id="w"><use transform="matrix(0.05,0,0,0.05,0,0)" xlink:href="#bp"/><use transform="matrix(0.05,0,0,0.05,10.950000000000001,0)" xlink:href="#bq"/><use transform="matrix(0.05,0,0,0.05,20.950000000000003,0)" xlink:href="#br"/><use transform="matrix(0.05,0,0,0.05,24.900000000000002,0)" xlink:href="#bs"/><use transform="matrix(0.05,0,0,0.05,28.85,0)" xlink:href="#bt"/><use transform="matrix(0.05,0,0,0.05,38.85,0)" xlink:href="#bu"/><use transform="matrix(0.05,0,0,0.05,44.800000000000004,0)" xlink:href="#bv"/></g><path fill="#e81313" d="M30 0v-248h187v28H63v79h144v27H63v87h162V0H30" id="bw"/><path fill="#e81313" d="M100-194c62-1 85 37 85 99 1 63-27 99-86 99S16-35 15-95c0-66 28-99 85-99zM99-20c44 1 53-31 53-75 0-43-8-75-51-75s-53 32-53 75 10 74 51 75" id="bx"/><g id="x"><use transform="matrix(0.05,0,0,0.05,0,0)" xlink:href="#bw"/><use transform="matrix(0.05,0,0,0.05,12,0)" xlink:href="#bu"/><use transform="matrix(0.05,0,0,0.05,17.95,0)" xlink:href="#bu"/><use transform="matrix(0.05,0,0,0.05,23.9,0)" xlink:href="#bx"/><use transform="matrix(0.05,0,0,0.05,33.9,0)" xlink:href="#bu"/></g><path fill="#e81313" d="M233-177c-1 41-23 64-60 70L243 0h-38l-65-103H63V0H30v-248c88 3 205-21 203 71zM63-129c60-2 137 13 137-47 0-61-80-42-137-45v92" id="by"/><path fill="#e81313" d="M59-47c-2 24 18 29 38 22v24C64 9 27 4 27-40v-127H5v-23h24l9-43h21v43h35v23H59v120" id="bz"/><path fill="#e81313" d="M179-190L93 31C79 59 56 82 12 73V49c39 6 53-20 64-50L1-190h34L92-34l54-156h33" id="bA"/><g id="y"><use transform="matrix(0.05,0,0,0.05,0,0)" xlink:href="#by"/><use transform="matrix(0.05,0,0,0.05,12.950000000000001,0)" xlink:href="#bv"/><use transform="matrix(0.05,0,0,0.05,22.950000000000003,0)" xlink:href="#bz"/><use transform="matrix(0.05,0,0,0.05,27.950000000000003,0)" xlink:href="#bu"/><use transform="matrix(0.05,0,0,0.05,33.900000000000006,0)" xlink:href="#bA"/></g><path fill="#e81313" d="M30 0v-248h33v221h125V0H30" id="bB"/><path fill="#e81313" d="M115-194c55 1 70 41 70 98S169 2 115 4C84 4 66-9 55-30l1 105H24l-1-265h31l2 30c10-21 28-34 59-34zm-8 174c40 0 45-34 45-75s-6-73-45-74c-42 0-51 32-51 76 0 43 10 73 51 73" id="bC"/><g id="z"><use transform="matrix(0.05,0,0,0.05,0,0)" xlink:href="#bB"/><use transform="matrix(0.05,0,0,0.05,10,0)" xlink:href="#bx"/><use transform="matrix(0.05,0,0,0.05,20,0)" xlink:href="#bx"/><use transform="matrix(0.05,0,0,0.05,30,0)" xlink:href="#bC"/></g><path fill="#333" d="M140-251c81 0 123 46 123 126C263-53 228-8 163 1c7 30 30 48 69 40v23c-55 16-95-15-103-61C56-3 17-48 17-125c0-80 42-126 123-126zm0 227c63 0 89-41 89-101s-29-99-89-99c-61 0-89 39-89 99S79-25 140-24" id="bD"/><path fill="#333" d="M30 0v-248h33v221h125V0H30" id="bE"/><g id="A"><use transform="matrix(0.05,0,0,0.05,0,0)" xlink:href="#aj"/><use transform="matrix(0.05,0,0,0.05,12,0)" xlink:href="#bD"/><use transform="matrix(0.05,0,0,0.05,26,0)" xlink:href="#bE"/></g><path fill="#333" d="M141 0L90-78 38 0H4l68-98-65-92h35l48 74 47-74h35l-64 92 68 98h-35" id="bF"/><path fill="#333" d="M96-169c-40 0-48 33-48 73s9 75 48 75c24 0 41-14 43-38l32 2c-6 37-31 61-74 61-59 0-76-41-82-99-10-93 101-131 147-64 4 7 5 14 7 22l-32 3c-4-21-16-35-41-35" id="bG"/><path fill="#333" d="M24-231v-30h32v30H24zM24 0v-190h32V0H24" id="bH"/><path fill="#333" d="M100-194c62-1 85 37 85 99 1 63-27 99-86 99S16-35 15-95c0-66 28-99 85-99zM99-20c44 1 53-31 53-75 0-43-8-75-51-75s-53 32-53 75 10 74 51 75" id="bI"/><g id="B"><use transform="matrix(0.05,0,0,0.05,0,0)" xlink:href="#an"/><use transform="matrix(0.05,0,0,0.05,12,0)" xlink:href="#bF"/><use transform="matrix(0.05,0,0,0.05,21,0)" xlink:href="#bb"/><use transform="matrix(0.05,0,0,0.05,31,0)" xlink:href="#bG"/><use transform="matrix(0.05,0,0,0.05,40,0)" xlink:href="#bd"/><use transform="matrix(0.05,0,0,0.05,50,0)" xlink:href="#ak"/><use transform="matrix(0.05,0,0,0.05,55,0)" xlink:href="#bH"/><use transform="matrix(0.05,0,0,0.05,58.95,0)" xlink:href="#bI"/><use transform="matrix(0.05,0,0,0.05,68.95,0)" xlink:href="#ao"/></g><path fill="#333" d="M24 0v-261h32V0H24" id="bJ"/><g id="C"><use transform="matrix(0.05,0,0,0.05,0,0)" xlink:href="#aj"/><use transform="matrix(0.05,0,0,0.05,12,0)" xlink:href="#bb"/><use transform="matrix(0.05,0,0,0.05,22,0)" xlink:href="#bJ"/><use transform="matrix(0.05,0,0,0.05,25.950000000000003,0)" xlink:href="#bb"/><use transform="matrix(0.05,0,0,0.05,35.95,0)" xlink:href="#bG"/><use transform="matrix(0.05,0,0,0.05,44.95,0)" xlink:href="#ak"/><use transform="matrix(0.05,0,0,0.05,49.95,0)" xlink:href="#bb"/><use transform="matrix(0.05,0,0,0.05,59.95,0)" xlink:href="#ap"/></g><g id="D"><use transform="matrix(0.05,0,0,0.05,0,0)" xlink:href="#ba"/><use transform="matrix(0.05,0,0,0.05,12.950000000000001,0)" xlink:href="#bb"/><use transform="matrix(0.05,0,0,0.05,22.950000000000003,0)" xlink:href="#ao"/><use transform="matrix(0.05,0,0,0.05,32.95,0)" xlink:href="#bc"/><use transform="matrix(0.05,0,0,0.05,41.95,0)" xlink:href="#bd"/><use transform="matrix(0.05,0,0,0.05,51.95,0)" xlink:href="#bc"/></g><path fill="#333" d="M127-220V0H93v-220H8v-28h204v28h-85" id="bK"/><path fill="#333" d="M115-194c53 0 69 39 70 98 0 66-23 100-70 100C84 3 66-7 56-30L54 0H23l1-261h32v101c10-23 28-34 59-34zm-8 174c40 0 45-34 45-75 0-40-5-75-45-74-42 0-51 32-51 76 0 43 10 73 51 73" id="bL"/><g id="E"><use transform="matrix(0.05,0,0,0.05,0,0)" xlink:href="#bK"/><use transform="matrix(0.05,0,0,0.05,8.950000000000001,0)" xlink:href="#al"/><use transform="matrix(0.05,0,0,0.05,18.950000000000003,0)" xlink:href="#bL"/><use transform="matrix(0.05,0,0,0.05,28.950000000000003,0)" xlink:href="#bJ"/><use transform="matrix(0.05,0,0,0.05,32.900000000000006,0)" xlink:href="#bb"/><use transform="matrix(0.05,0,0,0.05,42.900000000000006,0)" xlink:href="#bc"/></g><path fill="#333" d="M30-248c87 1 191-15 191 75 0 78-77 80-158 76V0H30v-248zm33 125c57 0 124 11 124-50 0-59-68-47-124-48v98" id="bM"/><path fill="#333" d="M210-169c-67 3-38 105-44 169h-31v-121c0-29-5-50-35-48C34-165 62-65 56 0H25l-1-190h30c1 10-1 24 2 32 10-44 99-50 107 0 11-21 27-35 58-36 85-2 47 119 55 194h-31v-121c0-29-5-49-35-48" id="bN"/><path fill="#333" d="M115-194c55 1 70 41 70 98S169 2 115 4C84 4 66-9 55-30l1 105H24l-1-265h31l2 30c10-21 28-34 59-34zm-8 174c40 0 45-34 45-75s-6-73-45-74c-42 0-51 32-51 76 0 43 10 73 51 73" id="bO"/><g id="F"><use transform="matrix(0.05,0,0,0.05,0,0)" xlink:href="#bM"/><use transform="matrix(0.05,0,0,0.05,12,0)" xlink:href="#am"/><use transform="matrix(0.05,0,0,0.05,17.95,0)" xlink:href="#bI"/><use transform="matrix(0.05,0,0,0.05,27.950000000000003,0)" xlink:href="#bN"/><use transform="matrix(0.05,0,0,0.05,42.9,0)" xlink:href="#bO"/><use transform="matrix(0.05,0,0,0.05,52.900000000000006,0)" xlink:href="#ak"/></g><g id="G"><use transform="matrix(0.05,0,0,0.05,0,0)" xlink:href="#aj"/><use transform="matrix(0.05,0,0,0.05,12,0)" xlink:href="#bD"/><use transform="matrix(0.05,0,0,0.05,26,0)" xlink:href="#bE"/></g><g id="H"><use transform="matrix(0.05,0,0,0.05,0,0)" xlink:href="#bK"/><use transform="matrix(0.05,0,0,0.05,8.950000000000001,0)" xlink:href="#al"/><use transform="matrix(0.05,0,0,0.05,18.950000000000003,0)" xlink:href="#bL"/><use transform="matrix(0.05,0,0,0.05,28.950000000000003,0)" xlink:href="#bd"/><use transform="matrix(0.05,0,0,0.05,38.95,0)" xlink:href="#bJ"/><use transform="matrix(0.05,0,0,0.05,42.900000000000006,0)" xlink:href="#al"/><use transform="matrix(0.05,0,0,0.05,52.900000000000006,0)" xlink:href="#am"/></g><g id="I"><use transform="matrix(0.05,0,0,0.05,0,0)" xlink:href="#be"/><use transform="matrix(0.05,0,0,0.05,12.950000000000001,0)" xlink:href="#al"/><use transform="matrix(0.05,0,0,0.05,22.950000000000003,0)" xlink:href="#ak"/><use transform="matrix(0.05,0,0,0.05,27.950000000000003,0)" xlink:href="#al"/></g><path fill="#333" d="M118-107v75H92v-75H18v-26h74v-75h26v75h74v26h-74" id="bP"/><use transform="matrix(0.05,0,0,0.05,0,0)" xlink:href="#bP" id="J"/><g id="K"><use transform="matrix(0.05,0,0,0.05,0,0)" xlink:href="#an"/><use transform="matrix(0.05,0,0,0.05,12,0)" xlink:href="#ap"/><use transform="matrix(0.05,0,0,0.05,22,0)" xlink:href="#bH"/><use transform="matrix(0.05,0,0,0.05,25.950000000000003,0)" xlink:href="#ak"/><use transform="matrix(0.05,0,0,0.05,30.950000000000003,0)" xlink:href="#al"/><use transform="matrix(0.05,0,0,0.05,40.95,0)" xlink:href="#bL"/><use transform="matrix(0.05,0,0,0.05,50.95,0)" xlink:href="#bJ"/><use transform="matrix(0.05,0,0,0.05,54.900000000000006,0)" xlink:href="#bb"/></g><g id="L"><use transform="matrix(0.05,0,0,0.05,0,0)" xlink:href="#aj"/><use transform="matrix(0.05,0,0,0.05,12,0)" xlink:href="#bD"/><use transform="matrix(0.05,0,0,0.05,26,0)" xlink:href="#bE"/></g><path fill="#333" d="M179-190L93 31C79 59 56 82 12 73V49c39 6 53-20 64-50L1-190h34L92-34l54-156h33" id="bQ"/><g id="M"><use transform="matrix(0.05,0,0,0.05,0,0)" xlink:href="#bD"/><use transform="matrix(0.05,0,0,0.05,14,0)" xlink:href="#bd"/><use transform="matrix(0.05,0,0,0.05,24,0)" xlink:href="#bb"/><use transform="matrix(0.05,0,0,0.05,34,0)" xlink:href="#am"/><use transform="matrix(0.05,0,0,0.05,39.95,0)" xlink:href="#bQ"/></g><g id="N"><use transform="matrix(0.05,0,0,0.05,0,0)" xlink:href="#bK"/><use transform="matrix(0.05,0,0,0.05,8.950000000000001,0)" xlink:href="#al"/><use transform="matrix(0.05,0,0,0.05,18.950000000000003,0)" xlink:href="#bL"/><use transform="matrix(0.05,0,0,0.05,28.950000000000003,0)" xlink:href="#bd"/><use transform="matrix(0.05,0,0,0.05,38.95,0)" xlink:href="#bJ"/><use transform="matrix(0.05,0,0,0.05,42.900000000000006,0)" xlink:href="#al"/><use transform="matrix(0.05,0,0,0.05,52.900000000000006,0)" xlink:href="#am"/></g><g id="O"><use transform="matrix(0.05,0,0,0.05,0,0)" xlink:href="#be"/><use transform="matrix(0.05,0,0,0.05,12.950000000000001,0)" xlink:href="#al"/><use transform="matrix(0.05,0,0,0.05,22.950000000000003,0)" xlink:href="#ak"/><use transform="matrix(0.05,0,0,0.05,27.950000000000003,0)" xlink:href="#al"/></g><g id="P"><use transform="matrix(0.05,0,0,0.05,0,0)" xlink:href="#bK"/><use transform="matrix(0.05,0,0,0.05,8.950000000000001,0)" xlink:href="#al"/><use transform="matrix(0.05,0,0,0.05,18.950000000000003,0)" xlink:href="#bL"/><use transform="matrix(0.05,0,0,0.05,28.950000000000003,0)" xlink:href="#bJ"/><use transform="matrix(0.05,0,0,0.05,32.900000000000006,0)" xlink:href="#bb"/></g><path fill="#333" d="M101-234c-31-9-42 10-38 44h38v23H63V0H32v-167H5v-23h27c-7-52 17-82 69-68v24" id="bR"/><g id="Q"><use transform="matrix(0.05,0,0,0.05,0,0)" xlink:href="#be"/><use transform="matrix(0.05,0,0,0.05,12.950000000000001,0)" xlink:href="#bb"/><use transform="matrix(0.05,0,0,0.05,22.950000000000003,0)" xlink:href="#bR"/><use transform="matrix(0.05,0,0,0.05,27.950000000000003,0)" xlink:href="#bH"/><use transform="matrix(0.05,0,0,0.05,31.900000000000002,0)" xlink:href="#ao"/><use transform="matrix(0.05,0,0,0.05,41.900000000000006,0)" xlink:href="#bH"/><use transform="matrix(0.05,0,0,0.05,45.85000000000001,0)" xlink:href="#ak"/><use transform="matrix(0.05,0,0,0.05,50.85000000000001,0)" xlink:href="#bH"/><use transform="matrix(0.05,0,0,0.05,54.80000000000001,0)" xlink:href="#bI"/><use transform="matrix(0.05,0,0,0.05,64.80000000000001,0)" xlink:href="#ao"/></g><path fill="#333" d="M234-2c-28 10-62 0-77-18C117 19 8 12 13-65c3-43 29-61 60-76-25-40-17-114 47-108 35 3 59 15 59 50 0 44-40 53-71 69 14 26 32 50 51 72 14-21 24-43 30-72l26 8c-9 33-21 57-38 82 13 13 33 22 57 15v23zM97-151c25-10 52-18 56-48-1-18-13-29-33-29-42 0-39 50-23 77zM42-66c-3 51 71 58 98 28-20-24-41-51-56-80-23 10-40 24-42 52" id="bS"/><use transform="matrix(0.05,0,0,0.05,0,0)" xlink:href="#bS" id="R"/><path fill="#333" d="M106-169C34-169 62-67 57 0H25v-261h32l-1 103c12-21 28-36 61-36 89 0 53 116 60 194h-32v-121c2-32-8-49-39-48" id="bT"/><g id="S"><use transform="matrix(0.05,0,0,0.05,0,0)" xlink:href="#aj"/><use transform="matrix(0.05,0,0,0.05,12,0)" xlink:href="#bG"/><use transform="matrix(0.05,0,0,0.05,21,0)" xlink:href="#bT"/><use transform="matrix(0.05,0,0,0.05,31,0)" xlink:href="#bb"/><use transform="matrix(0.05,0,0,0.05,41,0)" xlink:href="#bN"/><use transform="matrix(0.05,0,0,0.05,55.95,0)" xlink:href="#al"/><use transform="matrix(0.05,0,0,0.05,65.95,0)" xlink:href="#bc"/></g><path fill="#333" d="M63-220v92h138v28H63V0H30v-248h175v28H63" id="bU"/><path fill="#333" d="M206 0h-36l-40-164L89 0H53L-1-190h32L70-26l43-164h34l41 164 42-164h31" id="bV"/><g id="T"><use transform="matrix(0.05,0,0,0.05,0,0)" xlink:href="#bU"/><use transform="matrix(0.05,0,0,0.05,10.950000000000001,0)" xlink:href="#bb"/><use transform="matrix(0.05,0,0,0.05,20.950000000000003,0)" xlink:href="#bV"/></g><g id="U"><use transform="matrix(0.05,0,0,0.05,0,0)" xlink:href="#bc"/><use transform="matrix(0.05,0,0,0.05,9,0)" xlink:href="#bT"/><use transform="matrix(0.05,0,0,0.05,19,0)" xlink:href="#bI"/><use transform="matrix(0.05,0,0,0.05,29,0)" xlink:href="#ak"/></g><g id="V"><use transform="matrix(0.05,0,0,0.05,0,0)" xlink:href="#bb"/><use transform="matrix(0.05,0,0,0.05,10,0)" xlink:href="#bF"/><use transform="matrix(0.05,0,0,0.05,19,0)" xlink:href="#al"/><use transform="matrix(0.05,0,0,0.05,29,0)" xlink:href="#bN"/><use transform="matrix(0.05,0,0,0.05,43.95,0)" xlink:href="#bO"/><use transform="matrix(0.05,0,0,0.05,53.95,0)" xlink:href="#bJ"/><use transform="matrix(0.05,0,0,0.05,57.900000000000006,0)" xlink:href="#bb"/><use transform="matrix(0.05,0,0,0.05,67.9,0)" xlink:href="#bc"/></g><path fill="#333" d="M190 0L58-211 59 0H30v-248h39L202-35l-2-213h31V0h-41" id="bW"/><path fill="#333" d="M33-154v-36h34v36H33zM33 0v-36h34V0H33" id="bX"/><g id="W"><use transform="matrix(0.05,0,0,0.05,0,0)" xlink:href="#bW"/><use transform="matrix(0.05,0,0,0.05,12.950000000000001,0)" xlink:href="#bI"/><use transform="matrix(0.05,0,0,0.05,22.950000000000003,0)" xlink:href="#ak"/><use transform="matrix(0.05,0,0,0.05,27.950000000000003,0)" xlink:href="#bb"/><use transform="matrix(0.05,0,0,0.05,37.95,0)" xlink:href="#bX"/></g><g id="X"><use transform="matrix(0.05,0,0,0.05,0,0)" xlink:href="#ak"/><use transform="matrix(0.05,0,0,0.05,5,0)" xlink:href="#al"/><use transform="matrix(0.05,0,0,0.05,15,0)" xlink:href="#bL"/><use transform="matrix(0.05,0,0,0.05,25,0)" xlink:href="#bJ"/><use transform="matrix(0.05,0,0,0.05,28.950000000000003,0)" xlink:href="#bb"/></g><g id="Y"><use transform="matrix(0.05,0,0,0.05,0,0)" xlink:href="#bc"/><use transform="matrix(0.05,0,0,0.05,9,0)" xlink:href="#bb"/><use transform="matrix(0.05,0,0,0.05,19,0)" xlink:href="#bJ"/><use transform="matrix(0.05,0,0,0.05,22.95,0)" xlink:href="#bb"/><use transform="matrix(0.05,0,0,0.05,32.95,0)" xlink:href="#bG"/><use transform="matrix(0.05,0,0,0.05,41.95,0)" xlink:href="#ak"/><use transform="matrix(0.05,0,0,0.05,46.95,0)" xlink:href="#bH"/><use transform="matrix(0.05,0,0,0.05,50.900000000000006,0)" xlink:href="#bI"/><use transform="matrix(0.05,0,0,0.05,60.900000000000006,0)" xlink:href="#ao"/></g><g id="Z"><use transform="matrix(0.05,0,0,0.05,0,0)" xlink:href="#bG"/><use transform="matrix(0.05,0,0,0.05,9,0)" xlink:href="#al"/><use transform="matrix(0.05,0,0,0.05,19,0)" xlink:href="#ao"/></g><g id="aa"><use transform="matrix(0.05,0,0,0.05,0,0)" xlink:href="#al"/><use transform="matrix(0.05,0,0,0.05,10,0)" xlink:href="#bJ"/><use transform="matrix(0.05,0,0,0.05,13.949999999999998,0)" xlink:href="#bc"/><use transform="matrix(0.05,0,0,0.05,22.95,0)" xlink:href="#bI"/></g><g id="ab"><use transform="matrix(0.05,0,0,0.05,0,0)" xlink:href="#bL"/><use transform="matrix(0.05,0,0,0.05,10,0)" xlink:href="#bb"/></g><g id="ac"><use transform="matrix(0.05,0,0,0.05,0,0)" xlink:href="#ap"/><use transform="matrix(0.05,0,0,0.05,10,0)" xlink:href="#bI"/><use transform="matrix(0.05,0,0,0.05,20,0)" xlink:href="#ao"/><use transform="matrix(0.05,0,0,0.05,30,0)" xlink:href="#bb"/></g><path fill="#333" d="M177-190C167-65 218 103 67 71c-23-6-38-20-44-43l32-5c15 47 100 32 89-28v-30C133-14 115 1 83 1 29 1 15-40 15-95c0-56 16-97 71-98 29-1 48 16 59 35 1-10 0-23 2-32h30zM94-22c36 0 50-32 50-73 0-42-14-75-50-75-39 0-46 34-46 75s6 73 46 73" id="bY"/><g id="ad"><use transform="matrix(0.05,0,0,0.05,0,0)" xlink:href="#ak"/><use transform="matrix(0.05,0,0,0.05,5,0)" xlink:href="#bT"/><use transform="matrix(0.05,0,0,0.05,15,0)" xlink:href="#am"/><use transform="matrix(0.05,0,0,0.05,20.95,0)" xlink:href="#bI"/><use transform="matrix(0.05,0,0,0.05,30.950000000000003,0)" xlink:href="#bd"/><use transform="matrix(0.05,0,0,0.05,40.95,0)" xlink:href="#bY"/><use transform="matrix(0.05,0,0,0.05,50.95,0)" xlink:href="#bT"/></g><path fill="#333" d="M108 0H70L1-190h34L89-25l56-165h34" id="bZ"/><g id="ae"><use transform="matrix(0.05,0,0,0.05,0,0)" xlink:href="#bZ"/><use transform="matrix(0.05,0,0,0.05,9,0)" xlink:href="#bb"/><use transform="matrix(0.05,0,0,0.05,19,0)" xlink:href="#bG"/><use transform="matrix(0.05,0,0,0.05,28,0)" xlink:href="#ak"/><use transform="matrix(0.05,0,0,0.05,33,0)" xlink:href="#bI"/><use transform="matrix(0.05,0,0,0.05,43,0)" xlink:href="#am"/></g><g id="af"><use transform="matrix(0.05,0,0,0.05,0,0)" xlink:href="#bc"/><use transform="matrix(0.05,0,0,0.05,9,0)" xlink:href="#bb"/><use transform="matrix(0.05,0,0,0.05,19,0)" xlink:href="#al"/><use transform="matrix(0.05,0,0,0.05,29,0)" xlink:href="#am"/><use transform="matrix(0.05,0,0,0.05,34.95,0)" xlink:href="#bG"/><use transform="matrix(0.05,0,0,0.05,43.95,0)" xlink:href="#bT"/></g><g id="ag"><use transform="matrix(0.05,0,0,0.05,0,0)" xlink:href="#bG"/><use transform="matrix(0.05,0,0,0.05,9,0)" xlink:href="#bI"/><use transform="matrix(0.05,0,0,0.05,19,0)" xlink:href="#bN"/><use transform="matrix(0.05,0,0,0.05,33.95,0)" xlink:href="#bO"/><use transform="matrix(0.05,0,0,0.05,43.95,0)" xlink:href="#al"/><use transform="matrix(0.05,0,0,0.05,53.95,0)" xlink:href="#am"/><use transform="matrix(0.05,0,0,0.05,59.900000000000006,0)" xlink:href="#bH"/><use transform="matrix(0.05,0,0,0.05,63.85,0)" xlink:href="#bc"/><use transform="matrix(0.05,0,0,0.05,72.85000000000001,0)" xlink:href="#bI"/><use transform="matrix(0.05,0,0,0.05,82.85000000000001,0)" xlink:href="#ao"/></g><g id="ah"><use transform="matrix(0.05,0,0,0.05,0,0)" xlink:href="#bV"/><use transform="matrix(0.05,0,0,0.05,12.950000000000001,0)" xlink:href="#bH"/><use transform="matrix(0.05,0,0,0.05,16.900000000000002,0)" xlink:href="#ak"/><use transform="matrix(0.05,0,0,0.05,21.900000000000002,0)" xlink:href="#bT"/></g><g id="ai"><use transform="matrix(0.05,0,0,0.05,0,0)" xlink:href="#bM"/><use transform="matrix(0.05,0,0,0.05,12,0)" xlink:href="#bH"/><use transform="matrix(0.05,0,0,0.05,15.949999999999998,0)" xlink:href="#ao"/><use transform="matrix(0.05,0,0,0.05,25.950000000000003,0)" xlink:href="#bb"/><use transform="matrix(0.05,0,0,0.05,35.95,0)" xlink:href="#bG"/><use transform="matrix(0.05,0,0,0.05,44.95,0)" xlink:href="#bI"/><use transform="matrix(0.05,0,0,0.05,54.95,0)" xlink:href="#ao"/><use transform="matrix(0.05,0,0,0.05,64.95,0)" xlink:href="#bb"/></g></defs></g></svg>